<?xml version="1.0" standalone="no"?>
<!DOCTYPE svg PUBLIC "-//W3C//DTD SVG 20010904//EN"
 "http://www.w3.org/TR/2001/REC-SVG-20010904/DTD/svg10.dtd">
<svg version="1.0" xmlns="http://www.w3.org/2000/svg"
 width="1305.000000pt" height="597.000000pt" viewBox="0 0 1305.000000 597.000000"
 preserveAspectRatio="xMidYMid meet">
<metadata>
Created by potrace 1.16, written by Peter Selinger 2001-2019
</metadata>
<g transform="translate(0.000000,597.000000) scale(0.100000,-0.100000)"
fill="#000000" stroke="none">
<path d="M7304 5320 c-125 -63 -145 -260 -37 -362 92 -87 232 -56 295 66 17
33 20 53 16 115 -5 88 -23 129 -73 167 -49 37 -143 44 -201 14z"/>
<path d="M7786 5330 c-40 -12 -101 -78 -116 -125 -32 -98 15 -227 99 -272 105
-55 218 -11 261 104 40 106 18 201 -60 263 -35 28 -53 34 -99 37 -31 1 -69 -2
-85 -7z"/>
<path d="M11787 5308 c-46 -12 -101 -64 -122 -115 -38 -91 -2 -229 74 -278
154 -102 337 53 291 246 -16 65 -77 132 -135 148 -46 13 -56 13 -108 -1z"/>
<path d="M12246 5305 c-109 -39 -168 -180 -121 -293 21 -49 80 -109 122 -123
38 -12 126 -4 146 14 7 7 22 17 32 23 11 6 32 35 48 64 65 125 5 284 -120 319
-48 14 -59 13 -107 -4z"/>
<path d="M8946 5286 c-107 -40 -162 -170 -121 -287 49 -137 210 -180 312 -83
34 32 63 108 63 164 0 148 -128 252 -254 206z"/>
<path d="M9415 5288 c-41 -15 -95 -56 -95 -74 0 -7 -4 -14 -9 -14 -18 0 -33
-72 -29 -140 3 -55 9 -75 33 -110 16 -23 38 -46 50 -51 11 -6 31 -16 45 -24
33 -19 82 -19 128 0 173 73 170 349 -5 409 -53 18 -75 19 -118 4z"/>
<path d="M7858 4750 c-204 -16 -421 -70 -625 -157 l-83 -35 0 -340 c0 -375 4
-408 62 -518 38 -73 117 -153 183 -185 77 -38 150 -48 260 -36 52 6 97 11 100
11 3 0 5 -49 5 -108 l0 -108 -42 -35 c-199 -165 -426 -224 -655 -169 -135 32
-287 113 -360 192 l-23 24 -2 535 -3 534 -157 3 -158 3 0 -624 0 -624 89 -91
c168 -170 340 -268 557 -318 124 -29 349 -25 476 9 97 26 278 103 278 118 0 5
5 9 11 9 31 0 181 125 262 217 l57 67 0 183 0 184 98 -8 c53 -4 286 -8 517 -7
430 1 557 10 702 48 37 10 64 11 90 5 99 -24 199 -39 317 -49 165 -13 1391
-13 1471 0 42 7 61 6 66 -1 5 -8 123 -10 415 -6 436 5 478 9 692 64 l102 26 0
599 0 598 -165 0 -165 0 0 -449 c0 -418 -1 -449 -17 -456 -22 -8 -389 -24
-568 -25 l-130 0 -192 383 c-184 369 -194 386 -252 440 -106 98 -121 101 -494
105 l-317 3 2 -178 3 -178 285 -5 c163 -3 292 -9 302 -15 14 -9 288 -531 288
-550 0 -9 -1340 1 -1392 10 l-38 7 0 456 0 455 -147 -6 c-262 -12 -482 -62
-691 -158 l-83 -38 3 -359 3 -359 -95 -7 c-184 -12 -543 0 -592 19 -17 7 -18
38 -18 456 l0 449 -67 -1 c-38 -1 -112 -5 -165 -9z m-100 -886 c-2 -1 -48 -7
-103 -13 -92 -11 -101 -10 -125 7 -41 31 -49 72 -49 263 l-1 176 89 27 c49 15
110 30 137 34 l49 7 3 -249 c1 -137 1 -250 0 -252z m1622 276 l0 -230 -22 -5
c-13 -2 -54 -11 -91 -20 -82 -18 -119 -19 -135 -3 -9 9 -12 71 -12 220 l0 207
68 20 c85 26 141 39 170 40 l22 1 0 -230z"/>
<path d="M260 4175 l0 -165 575 0 575 0 0 -1945 0 -1945 145 0 145 0 0 2110 0
2110 -720 0 -720 0 0 -165z"/>
<path d="M3710 2230 l0 -2110 145 0 145 0 0 1945 0 1945 575 0 575 0 0 165 0
165 -720 0 -720 0 0 -2110z"/>
<path d="M262 3528 l3 -163 283 -3 282 -2 0 -1620 0 -1620 150 0 150 0 0 1785
0 1785 -435 0 -435 0 2 -162z"/>
<path d="M4280 1905 l0 -1785 150 0 150 0 0 1620 0 1620 285 0 285 0 0 165 0
165 -435 0 -435 0 0 -1785z"/>
<path d="M260 1580 l0 -1460 145 0 145 0 0 1460 0 1460 -145 0 -145 0 0 -1460z"/>
<path d="M4860 1580 l0 -1460 145 0 145 0 0 1460 0 1460 -145 0 -145 0 0
-1460z"/>
<path d="M10204 2178 c-17 -18 -42 -48 -57 -66 l-27 -34 0 -277 0 -277 57 -67
58 -67 65 0 65 0 -3 -65 -4 -65 66 0 66 0 0 65 0 65 58 0 58 0 62 71 62 70 0
270 c0 302 9 263 -84 366 l-39 43 -186 0 -187 0 -30 -32z m396 -373 l0 -265
-55 0 -55 0 0 135 c0 74 -3 135 -6 135 -8 0 -96 -98 -111 -124 -7 -11 -12 -49
-13 -83 l0 -63 -55 0 -55 0 0 265 0 265 175 0 175 0 0 -265z"/>
<path d="M12077 2148 l-57 -63 0 -281 0 -281 58 -66 57 -66 63 -1 62 0 0 -65
0 -65 65 0 65 0 0 65 0 65 59 0 c57 0 60 1 91 40 18 23 45 54 61 70 l29 28 0
275 0 274 -63 67 -64 66 -184 0 -184 0 -58 -62z m423 -343 l0 -265 -55 0 -55
0 0 136 c0 75 -4 134 -8 132 -5 -1 -34 -32 -65 -67 l-57 -64 0 -68 0 -69 -55
0 -55 0 0 265 0 265 175 0 175 0 0 -265z"/>
<path d="M7342 2147 c-29 -29 -52 -58 -52 -65 0 -7 -4 -12 -10 -12 -6 0 -10
-122 -10 -345 l0 -345 65 0 65 0 0 135 0 135 175 0 175 0 0 -135 0 -135 65 0
65 0 0 343 -1 342 -63 68 -63 67 -179 0 -180 0 -52 -53z m408 -227 l0 -130
-175 0 -175 0 0 130 0 130 175 0 175 0 0 -130z"/>
<path d="M8220 1790 l0 -410 65 0 65 0 0 205 0 205 175 0 175 0 0 -205 0 -205
65 0 65 0 0 410 0 410 -65 0 -65 0 0 -135 0 -135 -175 0 -175 0 0 135 0 135
-65 0 -65 0 0 -410z"/>
<path d="M9280 2187 c-8 -7 -36 -36 -62 -64 l-48 -52 0 -346 0 -345 65 0 65 0
0 135 0 135 175 0 175 0 0 -135 0 -135 65 0 65 0 0 340 0 339 -46 53 c-81 92
-67 88 -264 87 -124 0 -179 -3 -190 -12z m370 -267 l0 -130 -175 0 -175 0 0
130 0 130 175 0 175 0 0 -130z"/>
<path d="M11174 2176 c-3 -7 -27 -36 -55 -65 l-49 -51 0 -283 0 -282 61 -68
61 -67 181 1 182 0 62 72 63 72 0 271 0 271 -62 71 -63 72 -188 0 c-149 0
-189 -3 -193 -14z m376 -401 l0 -265 -175 0 -175 0 0 265 0 265 175 0 175 0 0
-265z"/>
<path d="M6320 2100 l0 -70 120 0 120 0 0 -340 0 -340 65 0 65 0 0 340 0 340
120 0 120 0 0 70 0 70 -305 0 -305 0 0 -70z"/>
</g>
</svg>
